<svg width="80" height="80" viewBox="0 0 80 80" fill="none" xmlns="http://www.w3.org/2000/svg">
<path fill-rule="evenodd" clip-rule="evenodd" d="M80 9.47004C76.9999 11.1052 73.8229 12.1768 70.572 12.65C73.985 10.149 76.5508 6.17736 77.788 1.48006C74.5601 3.83505 71.0373 5.49168 67.368 6.38005C65.8211 4.35751 63.9615 2.74904 61.9021 1.65231C59.8427 0.55557 57.6265 -0.00655575 55.388 5.76837e-05C46.324 5.76837e-05 38.976 9.04004 38.976 20.2C38.976 21.78 39.12 23.32 39.4 24.8C32.898 24.4142 26.5318 22.3386 20.7073 18.7057C14.8829 15.0727 9.72818 9.96217 5.572 3.70005C4.11434 6.77203 3.34606 10.2783 3.348 13.85C3.35232 17.1899 4.02238 20.4758 5.29763 23.4108C6.57287 26.3457 8.4131 28.8372 10.652 30.66C8.04905 30.5604 5.50152 29.6953 3.216 28.135V28.385C3.216 38.17 8.872 46.335 16.376 48.19C13.9585 48.9966 11.4273 49.1162 8.968 48.54C11.056 56.56 17.116 62.4 24.3 62.565C18.46 68.1924 11.2898 71.2351 3.916 71.215C2.60727 71.2135 1.29972 71.1166 0 70.9249C7.52926 76.869 16.2548 80.0163 25.16 79.9999C55.348 79.9999 71.856 49.225 71.856 22.54C71.856 21.665 71.84 20.79 71.808 19.925C75.0151 17.0798 77.7894 13.5408 80 9.47504V9.47004Z" fill="#75A1F3"/>
</svg>
