<svg width="80" height="80" viewBox="0 0 80 80" fill="none" xmlns="http://www.w3.org/2000/svg">
<path d="M78.172 12.49C80 21.4 80 40 80 40C80 40 80 58.6 78.172 67.51C77.156 72.435 74.184 76.31 70.42 77.62C63.584 80 40 80 40 80C40 80 16.428 80 9.58 77.62C5.8 76.29 2.832 72.42 1.828 67.51C1.19209e-07 58.6 0 40 0 40C0 40 1.19209e-07 21.4 1.828 12.49C2.844 7.565 5.816 3.69 9.58 2.38C16.428 -8.9407e-07 40 0 40 0C40 0 63.584 -8.9407e-07 70.42 2.38C74.2 3.71 77.168 7.58 78.172 12.49ZM32 57.5L56 40L32 22.5V57.5Z" fill="#FDD504"/>
</svg>
